<?xml version="1.0" encoding="UTF-8"?>
<svg id="Camada_2" data-name="Camada 2" xmlns="http://www.w3.org/2000/svg" viewBox="0 0 187.58 130.46">
  <defs>
    <style>
      .cls-1 {
        fill: #255b54;
      }

      .cls-1, .cls-2, .cls-3 {
        stroke-width: 0px;
      }

      .cls-2 {
        fill: #c2d12f;
      }

      .cls-3 {
        fill: #0ba969;
      }
    </style>
  </defs>
  <g id="Camada_1-2" data-name="Camada 1">
    <g id="Camada_1-2" data-name="Camada 1-2">
      <g>
        <path class="cls-2" d="m131,19.37c5.35,0,9.68-4.33,9.68-9.68s-4.33-9.68-9.68-9.68-9.68,4.33-9.68,9.68,4.33,9.68,9.68,9.68m-4,18.17c-4.6,9.37-12.56,16.38-22.44,19.75-9.87,3.37-20.47,2.7-29.83-1.9l-9.46,19.29c14.52,7.13,30.95,8.17,46.25,2.94s27.66-16.1,34.78-30.63l-19.29-9.46h0Z"/>
        <path class="cls-3" d="m125.75,36.92c.16-.33.45-.59.8-.71.35-.12.74-.1,1.07.07l12.98,6.37v-20.82h-19.2v21.97c1.67-2.11,3.13-4.41,4.34-6.88"/>
        <path class="cls-3" d="m71.24,78.73l-1.92,12.01v-12.74c-1.57-.62-3.13-1.31-4.67-2.06-.34-.17-.59-.45-.71-.8s-.09-.74.07-1.07l5.31-10.82V21.82h-28.16l-5.71,43.12h-1.08l-6.2-43.12H0v68.92h17.23v-41.65h1.97l6.4,41.65h18.12l6.4-41.65h1.97v41.65h36.35l.93-8.49c-6.21-.25-12.27-1.43-18.13-3.52"/>
        <path class="cls-3" d="m75.34,54.14c5.28,2.59,10.97,3.89,16.68,3.87l2.3-21.02h1.18l2.58,20.5c2.03-.34,4.04-.85,6.02-1.52,4.04-1.38,7.74-3.39,11.01-5.94l-4.35-28.2h-30.42l-5.16,32.25c.06.02.11.03.16.06"/>
        <path class="cls-3" d="m111.96,78.95c-3.55,1.21-7.17,2.1-10.84,2.65l1.15,9.14h19.12l-2.27-14.74c-2.31,1.12-4.7,2.11-7.16,2.95"/>
        <path class="cls-3" d="m184.27,63.03c-1.68-2.82-3.66-5.2-5.95-7.14-2.3-1.94-5.28-4.19-8.96-6.75-3.31-2.24-5.73-4.07-7.28-5.49h15.43v-.03h8.19c0-4.07-.87-7.81-2.61-11.23-1.74-3.41-4.38-6.16-7.93-8.22-3.54-2.07-7.94-3.1-13.19-3.1-4.27,0-7.99.8-11.17,2.41-3.18,1.61-5.65,3.92-7.38,6.94-1.74,3.02-2.61,6.57-2.61,10.63,0,.59.03,1.15.09,1.71l6.03,2.96c.34.17.59.45.71.8s.09.74-.07,1.07c-.74,1.5-1.53,2.97-2.38,4.39.72.8,1.49,1.54,2.32,2.21,1.84,1.48,4.3,3.2,7.38,5.17,2.76,1.77,4.92,3.27,6.5,4.48,1.22.94,2.27,2.01,3.18,3.2h-23.95v-8.37c-5.22,6.65-11.73,12.13-19.2,16.15v15.91h19.2v-23.68c0,5.19.79,9.64,2.36,13.38s4.19,6.66,7.83,8.76c3.64,2.1,8.45,3.15,14.42,3.15,3.61,0,7.05-.68,10.34-2.02,3.28-1.35,5.97-3.5,8.08-6.45,2.1-2.95,3.15-6.73,3.15-11.32,0-3.54-.84-6.73-2.51-9.55"/>
        <polygon class="cls-1" points="83.7 95.87 78.38 95.87 69.92 95.87 64.6 95.87 64.6 103.73 69.92 103.73 69.92 129.87 78.38 129.87 78.38 103.73 83.7 103.73 83.7 95.87"/>
        <polygon class="cls-1" points="114.79 122.06 114.79 95.87 106.33 95.87 106.33 129.87 108.5 129.87 108.5 129.92 121.86 129.92 121.86 122.06 114.79 122.06"/>
        <polygon class="cls-1" points="95.22 129.87 103.69 129.87 98.95 95.87 96.4 95.87 90.48 95.87 87.93 95.87 83.19 129.87 91.66 129.87 92.03 127.24 94.85 127.24 95.22 129.87"/>
        <polygon class="cls-1" points="179.11 129.87 187.58 129.87 182.84 95.87 180.28 95.87 174.37 95.87 171.82 95.87 167.08 129.87 175.55 129.87 175.91 127.24 178.74 127.24 179.11 129.87"/>
        <polygon class="cls-1" points="16.09 104.34 16.09 95.87 8.47 95.87 0 95.87 0 104.34 0 108.64 0 117.11 0 129.87 8.47 129.87 8.47 117.11 14.24 117.11 14.24 108.64 8.47 108.64 8.47 104.34 16.09 104.34"/>
        <polygon class="cls-1" points="164.45 95.87 158.29 95.87 155.98 95.87 144.29 95.87 144.29 103.8 152.9 103.8 142.78 129.87 146.42 129.87 151.25 129.87 163.63 129.87 163.63 121.89 154.35 121.89 164.45 95.87"/>
        <polygon class="cls-1" points="140.34 104.34 140.34 95.87 132.7 95.87 124.24 95.87 124.24 104.34 124.24 108.64 124.24 117.11 124.24 121.41 124.24 129.87 132.7 129.87 140.34 129.87 140.34 121.41 132.7 121.41 132.7 117.11 138.48 117.11 138.48 108.64 132.7 108.64 132.7 104.34 140.34 104.34"/>
        <path class="cls-1" d="m28.92,95.28c6.34,0,11.04,3.85,11.04,17.6s-5.75,17.59-11.04,17.59c-5.02,0-11.05-3.89-11.05-17.57s5.22-17.62,11.05-17.62h0Z"/>
        <path class="cls-1" d="m63.94,129.87l-5.9-14.53c2.16-1.53,4.52-4.53,4.52-10.39,0-6.33-4.43-9.52-11.36-9.71h-8.47v34.63h8.47v-10.08l4.27,10.08h8.47Z"/>
      </g>
    </g>
  </g>
</svg>